<?xml version="1.0" encoding="UTF-8" standalone="no"?>
<!-- Created with Inkscape (http://www.inkscape.org/) -->

<svg
   width="128"
   height="128"
   viewBox="0 0 33.866666 33.866666"
   version="1.1"
   id="svg1"
   inkscape:version="1.3.2 (091e20e, 2023-11-25, custom)"
   sodipodi:docname="favicon.svg"
   xmlns:inkscape="http://www.inkscape.org/namespaces/inkscape"
   xmlns:sodipodi="http://sodipodi.sourceforge.net/DTD/sodipodi-0.dtd"
   xmlns="http://www.w3.org/2000/svg"
   xmlns:svg="http://www.w3.org/2000/svg">
  <sodipodi:namedview
     id="namedview1"
     pagecolor="#ffffff"
     bordercolor="#000000"
     borderopacity="0.25"
     inkscape:showpageshadow="2"
     inkscape:pageopacity="0.0"
     inkscape:pagecheckerboard="0"
     inkscape:deskcolor="#d1d1d1"
     inkscape:document-units="px"
     inkscape:zoom="3.5277093"
     inkscape:cx="102.04922"
     inkscape:cy="79.229884"
     inkscape:window-width="958"
     inkscape:window-height="981"
     inkscape:window-x="952"
     inkscape:window-y="0"
     inkscape:window-maximized="0"
     inkscape:current-layer="layer1" />
  <defs
     id="defs1" />
  <g
     inkscape:label="Layer 1"
     inkscape:groupmode="layer"
     id="layer1">
    <circle
       style="fill:#303030;stroke:none;stroke-width:0.529167;stroke-linecap:round;fill-opacity:1"
       id="path2"
       cx="16.933332"
       cy="16.933332"
       r="16.933332" />
    <path
       style="fill:none;stroke:#21dcff;stroke-width:0.521026;stroke-linecap:round;stroke-opacity:1"
       d="m 52.236497,4.0327298 c 1.587888,-3.17579995 3.175778,-6.3174 4.763668,-8.2986002 1.58788,-1.9812 3.17577,-2.7549 4.76366,-2.0496 1.58786,0.7053 3.17576,2.8821 4.76366,5.74280025 1.5879,2.86069995 3.1758,6.34879995 4.7637,9.21069995 1.5879,2.8619002 3.1757,5.0347002 4.7636,5.7428002 1.5879,0.708 3.1758,-0.0706 4.7637,-2.0496 1.5879,-1.9789 3.1758,-5.1228002 4.7637,-8.2985002"
       title="4*sin(0.5*x)"
       id="path1" />
    <path
       style="fill:none;fill-opacity:1;stroke:#21dcff;stroke-width:0.529166;stroke-linecap:round;stroke-dasharray:none;stroke-opacity:1"
       d="m 52.240567,15.432989 c 1.587496,-2.3813 3.174996,-4.7369 4.762496,-6.2224001 1.5875,-1.4855001 3.175,-2.0657001 4.7625,-1.5368001 1.58752,0.5288 3.17502,2.1610001 4.76252,4.3060002 1.5875,2.145 3.175,4.7605 4.7625,6.9063 1.5875,2.1459 3.175,3.7752 4.7625,4.3061 1.5875,0.5309 3.175,-0.053 4.7625,-1.5368 1.5875,-1.4839 3.175,-3.8412 4.7625,-6.2224"
       title="3*sin(0.5*x)"
       id="path3" />
    <path
       style="fill:none;fill-opacity:1;stroke:#21dcff;stroke-width:0.529167;stroke-linecap:round;stroke-dasharray:none;stroke-opacity:1"
       d="m 21.639989,41.758613 c 1.587496,-1.5875 3.174996,-3.1579 4.762496,-4.1483 1.5875,-0.9903 3.175,-1.3771 4.7625,-1.0245 1.58752,0.3525 3.17502,1.4407 4.76252,2.8707 1.5875,1.4299 3.175,3.1736 4.7625,4.6042 1.5875,1.4306 3.175,2.5167 4.7625,2.8707 1.5875,0.3539 3.175,-0.0353 4.7625,-1.0246 1.5875,-0.9892 3.175,-2.5607 4.7625,-4.1482"
       title="2*sin(0.5*x)"
       id="path4" />
    <path
       style="fill:none;fill-opacity:1;stroke:#0090ff;stroke-width:0.529167;stroke-linecap:round;stroke-dasharray:none;stroke-opacity:1"
       d="m 0.26457464,16.932633 c 1.58749596,-3.175 3.17499596,-5.876499 4.76249596,-5.172799 1.5875,0.7037 3.175,4.613099 4.7625,7.474899 1.5875194,2.8618 3.1750194,3.8235 4.7625194,1.8461 1.5875,-1.9773 3.175,-6.3147 4.7625,-8.296499 1.5875,-1.9818 3.175,-1.0132 4.7625,1.846199 1.5875,2.8593 3.175,6.7656 4.7625,7.4749 1.5875,0.7093 3.175,-1.9978 4.7625,-5.1728"
       title="2*sin(x)"
       id="path5" />
  </g>
</svg>
